<svg xmlns="http://www.w3.org/2000/svg" viewBox="0 0 248.85733 128.56706" height="128.567" width="248.857"><defs><clipPath id="a"><path d="M0 96.425h186.643V0H0z"/></clipPath></defs><g clip-path="url(#a)" transform="matrix(1.33333 0 0 -1.33333 0 128.567)"><path d="M186.643 96.425H0L80.487 5.951c7.06-7.936 18.61-7.936 25.67 0z" fill="#81b3d3"/><path d="M43.242 95.704l49.522-58.35 49.325 57.997z" fill="#23a9e1"/><path d="M122.022 79.093l-15.187-.084c6.002 6.931 8.699 6.19 15.188.084m-41.174-5.358h26.68c-1.986 1.233-6.708 7.06-9.308 4.893-.212-.178-7.505 8.848-12.296 4.5-4.18-3.8-6.12.497-10.857-2.512-5.4-3.57 3.12-5.675 5.78-6.88" fill="#fff"/><path d="M137.107 90.882v3.75h3.203zM61.25 76.388l.14-.13c.035.038 3.583 3.87 9.215 7.648 5.187 3.48 13.235 7.615 22.156 7.566 8.901-.043 17.064-4.193 22.346-7.667 5.646-3.712 9.284-7.456 9.446-7.625l-3.875-4.536c-6.912-.949-11.863-6.077-18.603-4.956-3.396.564-3.498 2.514-4.469 4.456-.746 1.493-1.936 1.303-3.487 1.91-1.443.565-2.278 1.738-5.162 1.061-2.529-.593-2.807-4.518-5.953-4.293-1.689.121-1.81 2.497-4.244 5.54-6.3 7.57-12.158 6.522-16.247-.476l30.251-35.938zM48.362 94.632v-2.936l-2.47 2.936zm82.992 0h4.97v-4.668l-4.97-5.818zm-6.247-17.647v17.647h5.463V83.227l-5.393-6.313a1.49 1.49 0 0 1-.07.071m-.782 16.004V77.75a63.244 63.244 0 0 1-5.479 4.6zm-6.416.552V83.037a64.432 64.432 0 0 1-2.256 1.558 57.371 57.371 0 0 1-3.38 2.065zm-6.642.204v-6.532a50.577 50.577 0 0 1-4.806 2.272zm.783.887h5.74l-5.74-7.008zm6.641 0h5.6l-5.6-10.876zm-13.55 0h5.945l-5.435-4.818c-.168.065-.34.125-.51.188v4.63zm-.784-.642v-3.7a39.937 39.937 0 0 1-4.775 1.365zm-6.475-.065v-1.94a33.056 33.056 0 0 1-3.356.388zm-10.423.06l3.464-1.604a31.991 31.991 0 0 1-3.464-.39zm-6.347.005l4.723-2.308a38.627 38.627 0 0 1-4.723-1.347zm5.563-1.847l-5.09 2.49h5.09zm5.492.526l-4.242 1.963h4.242zm.938 1.963h4.44l-4.44-2.055zm5.791 0h4.99l-4.99-2.439zM79.777 89.84l-5.406 4.792h5.96V90.05c-.186-.07-.37-.138-.554-.209m-5.573 3.893l4.764-4.223a48.502 48.502 0 0 1-4.764-2.293zm-6.643-.197l5.608-6.9a55.303 55.303 0 0 1-5.608-3.715zm-6.416-.55L66.67 82.24c-2.753-2.14-4.692-4.012-5.524-4.854zm5.633-9.244l-5.599 10.89h5.6zm6.641 3.828l-5.739 7.062h5.74zm-19.303-2.708l-4.97 5.904v3.866h4.97zm.783 9.77h5.462v-17.19L54.9 83.93zm38.204 1.777h-50.92V73.946l50.581-61.522.34.423 50.747 60.394V96.41z" fill="#491213"/><path d="M88.745 25.51l4.02 6.5 4.003-6.5-4.003-6.515z" fill="#23a9e1"/><path d="M65.464 64.16c.513-.618.89-1.284.806-2.116-.06-.579-.936-1.55-.27-1.846l2.242 2.834c-.601.151-5.365 5.848-5.442 6.472l-3.16-1.734c.165-.66 1.295-.005 1.855-.046.828-.06 1.425-.56 1.953-1.152-1.727-1.449-5.93-5.017-6.374-5.09-.225-.036-1.088.601-1.1.056-.006-.262.85-1.014 1.014-1.21l2.229-2.653c.619.282-.11.732.205 1.243.23.374 4.9 4.267 6.042 5.242m-5.274 6.98c.443.095.624-.434.958.056L58.7 74.113c-.37.442-.84.916-.706-.018.09-.63-6.114-5.664-6.493-5.82-.479-.197-.758.417-1.11-.097.732-.869 1.461-1.739 2.194-2.608.246-.292.476-.612.747-.882.338-.339.208.672.223.585-.09.513.528.948.856 1.228 1.546 1.361 5.398 4.588 5.78 4.64m-8.771.916c-1.767-.523-3.65.164-4.207 2.042-.543 1.835.614 3.757 2.07 4.801 1.44 1.032 3.59.97 4.374-.838.346-.799.159-1.706-.093-2.502-.161-.506-.597-1 .055-1.289l2.58 3.286c-1.053.633-1.516 1.683-2.3 2.595-.88 1.071-2.063 2.08-3.481 2.284-2.87.406-5.574-2.556-5.795-5.245-.136-1.457.374-2.848 1.246-4 .75-.995 1.868-1.624 2.435-2.755.262-.095 2.705 1.033 3.286 1.255-.052.111-.09.275-.17.366-.761-.226 0 0 0 0m39.3-36.409c-1.15.768-4.025 4.69-4.573 5.341l-.33.391c-.01.014-.284-.224-.245-.19-.173-.146.133-.574-.052-.865-.793-1.24-5.758-4.984-6.016-5.163-.555-.384-1.164.16-1.49-.317.72-.853 2.78-3.543 3.019-3.582.48-.078.149.816.21 1 .124.37 2.634 2.446 3.55 3.211.336.281.688-.426.888-.722.327-.485.474-1 .298-1.569-.116-.37-.717-.92-.25-1.174l2.613 3.05c.252.292-.566.036-.47.086-.37-.19-.716-.235-1.062.028-.096.072-1.09 1.082-.99 1.166.43.362.959.963 1.516 1.1.863.213 1.582-1.516 1.709-2.129a3.451 3.451 0 0 0-.076-1.75c-.124-.387-.487-.696.018-.93.712.974 1.42 1.947 2.13 2.92a.714.714 0 0 0-.397.098c-.127.085.139-.07 0 0m-10.689 8.884c-.647-1.51-2.2-3.063-3.732-3.667-1.819-.715-3.1.827-2.36 2.553.65 1.515 2.202 3.056 3.737 3.666 1.851.735 3.066-.846 2.355-2.552-.382-.89.07.17 0 0m.465-4.753c2.205 1.856 2.482 5.053.768 7.34-1.867 2.488-5.37 3.095-7.803 1.051-2.204-1.854-2.49-5.047-.758-7.325 1.99-2.62 5.198-2.917 7.793-1.066 1.155.975-.1-.07 0 0m-6.444 14.609c.475-.06.926-.55 1.269-.042l-2.228 2.637c-.595-.269.047-.549-.194-.97-.244-.428-2.56-.782-3.176-.89.224.643.894 2.614 1.157 2.834.544.445.883-.432 1.283.141l-2.743 3.253c-.31.366-.558 1.028-.98.68.038.031.006-1.472-.09-1.733-.085-.236-.935-3.638-1.925-4.47-.493-.414-2.237-1.934-2.702-2.097-.541-.189-.825.598-1.22.038l2.49-2.957c.126-.148.603-.863.768-.893.52-.094.06.893.113 1.086.152.431 2.5 2.72 3.497 2.86 1.46.204 3.2.701 4.68.523.34-.042-.351.043 0 0" fill="#fff"/><path d="M67.792 73.551c-4.043.167-2.351 3.954.395 4.808 2.611.813 8.088-1.717 9.842-3.398-2.783-.855-6.385-.732-9.447-.874-.226 3.12-.957 2.032-.79-.536m9.503-12.549c-8.62.071-2.792 13.322.14 12.521 3.374-1.073 2.996-12.622-.14-12.52m6.105 4.329c-.84-2.501-2.36-2.968-2.192.07.194 3.502 2.478 2.661 4.93 4.003 2.04 1.12 3.138 5.215 6.64 2.766 1.561-1.094 3.351-.18 3.851-1.834-.026.085-4.545-10.307-2.032-10.307-4.96 0-2.773 5.922-.874 9.899-1.846-.885-4.842-6.688-2.382-7.643-1.28-1.686-5.194-3.945-7.234-2.298-1.55 1.249-.689 3.325-.707 5.344m4.105-9.604c-3.49-1.046-8.122 1.207-2.51 2.34 3.483.705 7.187-.777 2.51-2.34.14.042-.128-.043 0 0m4.37.142c-.736 1.657.562 3.634 2.68 2.198 1.846-1.252-.851-3.106-2.68-2.199m-2.946-4.668c-2.411.747-10.537.561-5.218 2.764 1.64.68 10.155-.098 5.218-2.764m10.433-3.314c-1.437 1.227-2.89 1.295-4.229 0-1.795 3.293-8.319 2.19-11.367 2.651 1.64-4.028 14.866-4.78 15.596-2.65m-1.902-2.425c-3.151.146-6.671.563-9.646-.084 1.86-.466 6.395-1.795 2.171-2.918 1.515-2.168 3.973-2.03 5.584-.127-.655.322-1.009.719-1.551 1.057 1.671.303 3.234 1.267 3.442 2.072m3.596 3.877c-5.288 3.112-3.95 5.427.354 7.586 2.253 1.131 7.324 5.208 9.447 3.85l-9.801-11.436" fill="#dc6243"/><path d="M97.291 56.616c-4.479 4.601 6.689 4.178 8.487 5.796 1.311-.437 10.768 8.283 13.072 7.741-1.656-1.94-5.22-8.136-7.776-8.136-1.964 0-3.95.292-5.471-1.107-2.225-2.048-5.91-3.09-8.312-4.294" fill="#f49774"/><path d="M98.758 62.242c-2.453-1.319-4.772 3.907-.537 3.398 2.813-.338 5.662.237 8.348-.226-1.927-2.29-4.707-3.553-7.811-3.172" fill="#f4b1a4"/><path d="M111.39 43.959c.19-.648.299-1.332.215-2.009-.108-.873-.98-2.925-2.173-2.34-1.17.574-2.194 1.728-3.188 2.552.802.936 1.507 1.749 2.854 1.295.37-.123.688.036.299.262-.405.234-3.114 1.965-3.261 1.799-.27-.311.528-.869.22-1.473-.228-.447-.61-.834-.931-1.219-.72.608-1.923 1.253-1.056 2.256.542.66 1.25 1.172 2.097 1.342.566.114 1.84-.389 2.006.223l-3.258 1.565c.177-.799-3.348-4.524-4.131-5.464-.113-.137-.658-.609-.664-.797-.008-.429.622-.096.658-.084.486.18 6.816-5.109 6.972-5.471.1-.281-.221-.574-.03-.732-.01.01.228-.216.254-.184.39.468 4.522 5.975 5.374 6.217a392.399 392.399 0 0 0-2.368 3.653c-.59-.258-.02-.949.11-1.391m-6.161-6.703c-2.076 1.34-5.595-1.28-6.124-1.531-1.04-.492-1.79.543-1.252 1.502.47.83 1.393 1.234 2.31 1.289.277.016 1.35-.198 1.46-.027.128.203.226.22.041.345l-2.567 1.735c-.177-1.055-1.386-1.727-2.077-2.442-.822-.854-1.52-1.93-1.52-3.156 0-1.135.68-2.142 1.678-2.66 1.136-.592 2.318-.117 3.324.51.627.392 1.254.857 1.924 1.17.996.468 2.304.064 1.953-1.268-.282-1.073-1.35-2.061-2.405-2.34-.616-.164-1.27-.11-1.872.09-.432.14-.993.734-1.23.11l3.482-2.536c.103.76.522 1.09 1.086 1.564.735.645 1.438 1.32 1.994 2.13 1.16 1.695 1.539 4.064-.204 5.515m-.001 0c.926-.598-.59.494 0 0m29.234 37.314c-.007-.004-.007-.004 0 0" fill="#fff"/><path d="M134.546 74.624c.077.05.153.099 0 0a2.533 2.533 0 0 1-.084-.053c.014.007.047.03.082.051a5.722 5.722 0 0 1-.958-.76c-.521.897-1.044 1.795-1.564 2.693 1.176-.492 2.35-.986 3.524-1.482a3.735 3.735 0 0 1-1-.448m7.374 2.156c-.73-.73-8.42 2.34-8.982 2.764-.29.116-.3 1.32-.705.833l-1.216-1.463c-.418-.505-.837-1.01-1.256-1.513-.26-.314-.537-.458-.038-.72.837.419 5.417-7.346 5.008-8.461-.725-.376-6.915 5.057-7.081 5.415-.052.146.273 1.02-.211.945-.23-.036-.744-.896-.89-1.072l-.888-1.072c.332-.485.517.02.959-.042.383-.077 1.844-1.331 2.24-1.664-.723-.027-2.683-.131-2.932-.113-.903-.112-.422.663-1.015.93-.76-.921-1.52-1.842-2.277-2.763l-1.326-1.607c-.054-.065-.047-.032.049-.112.33-.273.105-.168.569-.006.506.177 6.558-4.931 6.776-5.19.377-.45-.154-.975.41-1.221l1.799 2.184c.09.11.14.1.02.198-.426.353-.475-.212-1.001-.154-.533.089-4.395 3.369-5.895 4.61l8.199.304c.3.01 1.139-.896 1.069-1.216-.081-.378-.463-.558.053-.794.48.575.986 1.149 1.457 1.734l.226.282a.74.74 0 0 1 .21.265l.168.21c.425.486 1.8 2.007 1.635 2.15-.461.4-.685-.465-1.298.055-.348.249-1.223 1.788-1.443 2.162-.264.449.608.897.963 1.119.777.482 3.248 1.183 3.483-.348.04-.258-.271-.55-.084-.704.044-.037.204-.242.269-.163.164.197 2.362 2.843 3.3 3.969-.098.082-.207.224-.324.269M124.52 56.8l-.027-.028c-1.232-1.292-3.358-.096-4.504.731-1.148.83-3.113 2.57-1.858 4.104 1.057 1.287 3.125.231 4.193-.482 1.2-.803 3.411-2.596 2.275-4.216.074.09.126.148-.08-.11m.281 6.614c-2.374 1.98-5.63 1.404-7.585-.832-1.904-2.312-1.713-5.663.605-7.615 2.34-1.926 5.67-1.438 7.573.846 1.897 2.303 1.767 5.668-.593 7.601m0 0c1.172-.959-.252.211 0 0" fill="#fff"/><path d="M124.492 56.773l.026.026c.03.038.056.074.08.11a1.773 1.773 0 0 1-.106-.136m-7.602-9.238c-.24-.296-.043-.054-.664-.65-.306-.293-6.438 4.675-6.192 4.944.835.918 2.567 1.556 3.577 1.297 2.19-.56 5.214-3.26 3.28-5.59m1.318 6.753c.113-.094.274-.224-.063.057-2.835 2.127-6.194 1.504-8.402-1.157a2327.56 2327.56 0 0 1-2.961-3.567c.35-.512.762.118 1.273-.176.436-.25 6.244-5.1 6.339-5.366.164-.458-.255-.548.143-.875.172-.143 4.537 5.245 4.935 6.191.69 1.755.14 3.678-1.264 4.893" fill="#fff"/></g></svg>