<svg xmlns="http://www.w3.org/2000/svg" viewBox="0 0 127.085 104.97988" height="104.98" width="127.085"><defs><clipPath id="a"><path d="M0 83.984h101.668V0H0v83.984z"/></clipPath></defs><path d="M0 0l63.226 73.817L127.085 0H0z" fill="#23a9e1"/><path d="M0 0v28.078l63.227 76.903.423-.53 63.435-75.493V.001H0zm4.635 2.22h118.022L63.65 71.314l-.423.514L4.635 2.22z" fill="#491213"/><g clip-path="url(#a)" transform="matrix(1.25 0 0 -1.25 0 104.98)"><path d="M50.581 26.523l.338.41L78.495 59.22c-6.912-.949-11.863-6.076-18.604-4.955-3.396.563-3.498 2.513-4.469 4.455-.746 1.493-1.939 1.303-3.487 1.91-1.443.564-2.277 1.738-5.162 1.06-2.528-.59-2.808-4.517-5.953-4.292-1.688.121-1.81 2.498-4.244 5.54-6.3 7.57-12.157 6.522-16.245-.476l30.25-35.939z" fill="#491213"/><path d="M23.28 51.736c.512-.618.891-1.284.805-2.116-.06-.58-.937-1.55-.27-1.847l2.241 2.834c-.6.15-5.365 5.849-5.44 6.473-1.054-.578-2.108-1.156-3.16-1.735.164-.66 1.295-.005 1.854-.046.828-.06 1.424-.56 1.953-1.151-1.729-1.45-5.93-5.017-6.375-5.09-.226-.037-1.088.6-1.1.055-.008-.262.851-1.014 1.013-1.21.744-.884 1.486-1.77 2.23-2.651.618.28-.109.73.204 1.242.234.375 4.904 4.266 6.044 5.242m-5.272 6.979c.442.095.623-.434.957.056-.814.973-1.633 1.945-2.447 2.918-.372.441-.841.916-.707-.019.089-.63-6.114-5.664-6.493-5.819-.48-.198-.758.416-1.11-.098l2.194-2.607c.246-.293.477-.613.747-.883.338-.339.208.672.224.586-.092.512.527.947.855 1.227 1.545 1.361 5.397 4.588 5.78 4.64m-8.772.916c-1.768-.523-3.649.164-4.207 2.042-.543 1.835.614 3.757 2.071 4.802 1.44 1.031 3.59.97 4.373-.838.346-.8.158-1.707-.094-2.503-.16-.506-.598-1 .056-1.288l2.581 3.285c-1.055.633-1.518 1.684-2.3 2.596-.882 1.07-2.064 2.078-3.482 2.283-2.87.406-5.574-2.556-5.795-5.244-.137-1.457.374-2.849 1.246-4.002.75-.994 1.867-1.623 2.436-2.754.261-.095 2.704 1.033 3.285 1.256-.052.11-.089.274-.17.365-.76-.226 0 0 0 0m39.301-36.407c-1.15.768-4.025 4.689-4.574 5.34l-.328.392c-.012.016-.284-.224-.246-.19-.174-.146.134-.573-.053-.864-.793-1.24-5.759-4.981-6.017-5.162-.554-.385-1.164.158-1.487-.315.72-.855 2.778-3.543 3.02-3.582.48-.078.146.815.21 1 .123.369 2.633 2.445 3.55 3.21.335.282.688-.425.887-.722.327-.484.475-1 .3-1.568-.118-.371-.718-.92-.25-1.174.618.723 2.36 2.754 2.611 3.049.253.293-.565.037-.469.086-.37-.19-.718-.234-1.063.029-.097.069-1.088 1.082-.99 1.166.431.36.96.963 1.517 1.1.863.213 1.582-1.516 1.71-2.13a3.45 3.45 0 0 0-.076-1.75c-.123-.386-.486-.696.018-.93.712.974 1.423 1.945 2.132 2.92a.675.675 0 0 0-.402.095c-.128.084.14-.07 0 0m-10.689 8.882c-.646-1.51-2.201-3.063-3.732-3.666-1.818-.715-3.1.826-2.36 2.553.65 1.515 2.204 3.056 3.737 3.666 1.85.734 3.066-.846 2.355-2.553-.381-.889.07.17 0 0m.465-4.752c2.205 1.856 2.482 5.053.77 7.338-1.867 2.49-5.371 3.097-7.805 1.052-2.203-1.853-2.488-5.046-.758-7.324 1.99-2.62 5.199-2.918 7.793-1.066 1.156.975-.1-.07 0 0m-6.445 14.608c.476-.062.927-.55 1.27-.043-.742.88-1.484 1.76-2.229 2.638-.596-.269.048-.55-.194-.972-.244-.426-2.56-.78-3.176-.89.225.644.895 2.616 1.157 2.835.543.445.884-.432 1.283.141-.916 1.084-1.83 2.17-2.744 3.253-.31.366-.558 1.028-.979.68.04.031.006-1.473-.088-1.732-.086-.235-.937-3.639-1.927-4.472-.493-.414-2.237-1.933-2.702-2.095-.54-.189-.824.597-1.22.037l2.49-2.957c.125-.149.603-.863.768-.893.521-.095.06.893.113 1.086.151.43 2.5 2.72 3.496 2.858 1.462.207 3.201.705 4.682.526.34-.043-.35.043 0 0m37.339-10.428c.19-.648.3-1.332.215-2.01-.108-.873-.98-2.924-2.174-2.34-1.168.575-2.193 1.73-3.188 2.553.802.936 1.507 1.748 2.854 1.295.37-.123.69.035.3.262-.405.234-3.114 1.965-3.262 1.8-.27-.312.527-.869.222-1.474-.23-.447-.61-.834-.933-1.219-.72.608-1.924 1.252-1.056 2.256.541.66 1.25 1.172 2.097 1.342.565.113 1.841-.389 2.007.224-1.089.522-2.173 1.045-3.259 1.564.177-.798-3.349-4.523-4.13-5.462-.113-.139-.659-.609-.665-.799-.009-.428.621-.096.657-.084.486.182 6.816-5.107 6.972-5.47.101-.282-.22-.575-.028-.73-.01.01.228-.218.254-.187.39.47 4.52 5.977 5.373 6.217-.793 1.215-1.588 2.432-2.367 3.653-.59-.258-.02-.95.111-1.39m-6.162-6.704c-2.076 1.34-5.597-1.279-6.125-1.531-1.04-.49-1.79.543-1.25 1.502.469.83 1.393 1.234 2.31 1.289.276.017 1.35-.197 1.46-.026.128.204.227.223.04.348-.854.578-1.71 1.154-2.565 1.732-.177-1.056-1.386-1.728-2.076-2.439-.822-.855-1.521-1.932-1.521-3.156 0-1.135.679-2.143 1.677-2.66 1.137-.592 2.318-.118 3.323.509.627.393 1.254.858 1.924 1.172.996.467 2.306.063 1.953-1.269-.28-1.075-1.351-2.063-2.403-2.34-.617-.164-1.27-.11-1.873.09-.433.14-.992.734-1.23.111 1.16-.848 2.32-1.691 3.48-2.537.105.76.523 1.09 1.087 1.562.735.647 1.438 1.319 1.994 2.129 1.159 1.694 1.539 4.063-.205 5.514m0 0c.926-.598-.59.494 0 0m29.233 37.314c-.007-.004-.007-.004 0 0" fill="#fff"/><path d="M92.361 62.2c.077.049.153.098 0 0l-.084-.054c.015.008.047.03.082.05a5.723 5.723 0 0 1-.959-.76l-1.563 2.694c1.177-.492 2.353-.986 3.524-1.482a3.715 3.715 0 0 1-1-.448m7.373 2.155c-.728-.728-8.42 2.342-8.98 2.765-.29.116-.3 1.32-.706.833-.403-.488-.81-.977-1.215-1.463-.418-.506-.838-1.01-1.256-1.514-.26-.313-.537-.457-.039-.72.838.42 5.418-7.345 5.008-8.46-.726-.376-6.914 5.057-7.08 5.415-.053.146.272 1.02-.21.945-.23-.036-.746-.896-.89-1.072l-.89-1.072c.332-.485.516.02.96-.042.382-.078 1.843-1.332 2.24-1.664-.726-.027-2.687-.131-2.935-.113-.903-.112-.422.662-1.016.93-.76-.921-1.519-1.842-2.277-2.764-.44-.535-.885-1.071-1.325-1.606-.054-.066-.047-.032.05-.113.331-.272.104-.168.568-.005.507.177 6.56-4.931 6.775-5.19.377-.45-.154-.975.412-1.221l1.797 2.184c.092.109.141.1.022.197-.429.354-.478-.211-1.002-.153-.533.089-4.396 3.368-5.896 4.61l8.198.304c.3.01 1.14-.896 1.067-1.216-.079-.38-.463-.558.056-.795.478.576.983 1.15 1.455 1.735l.228.282a.728.728 0 0 1 .21.265l.167.21c.426.486 1.801 2.006 1.635 2.15-.46.4-.684-.465-1.297.055-.348.249-1.223 1.788-1.442 2.162-.265.449.606.897.963 1.119.776.48 3.248 1.182 3.481-.35.041-.257-.27-.548-.084-.702.045-.037.205-.242.271-.163.164.196 2.36 2.843 3.3 3.969-.095.082-.205.223-.323.268M82.335 44.374c-.019-.02-.023-.025-.025-.025-1.232-1.292-3.357-.097-4.506.73-1.146.828-3.11 2.568-1.856 4.104 1.058 1.287 3.125.231 4.192-.482 1.199-.804 3.412-2.597 2.275-4.216.073.09.127.146-.08-.11m.28 6.612c-2.375 1.98-5.629 1.405-7.586-.83-1.901-2.313-1.711-5.665.606-7.616 2.34-1.926 5.67-1.438 7.572.847 1.899 2.302 1.769 5.668-.592 7.6m0 0c1.173-.96-.252.212 0 0" fill="#fff"/><path d="M82.308 44.347l.025.026c.029.037.057.074.08.111a1.458 1.458 0 0 1-.105-.137m-7.602-9.236c-.24-.297-.043-.055-.664-.65-.308-.293-6.439 4.675-6.19 4.942.833.918 2.565 1.557 3.575 1.3 2.188-.56 5.213-3.262 3.28-5.592m1.316 6.753c.112-.093.274-.224-.06.057-2.837 2.127-6.195 1.504-8.403-1.156a2232.73 2232.73 0 0 1-2.96-3.567c.35-.51.762.118 1.272-.175.436-.25 6.243-5.1 6.338-5.365.164-.459-.254-.549.144-.875.172-.145 4.538 5.244 4.937 6.19.688 1.753.138 3.677-1.268 4.891" fill="#fff"/><path d="M50.58 26.507l.34.409 27.575 32.288c-6.913-.95-11.864-6.077-18.603-4.956-3.397.564-3.499 2.514-4.47 4.456-.746 1.493-1.937 1.303-3.487 1.91-1.442.565-2.277 1.738-5.162 1.06-2.528-.592-2.807-4.517-5.952-4.292-1.689.12-1.81 2.497-4.244 5.539-6.302 7.57-12.158 6.523-16.247-.475l30.25-35.94z" fill="#491213"/><path d="M46.56 13.068l4.02 6.5 4.004-6.5-4.004-6.515-4.02 6.515z" fill="#23a9e1"/><path d="M23.28 51.719c.512-.618.89-1.284.805-2.116-.059-.58-.936-1.55-.27-1.846l2.242 2.834c-.602.15-5.365 5.848-5.442 6.472l-3.159-1.734c.164-.661 1.294-.005 1.854-.046.828-.06 1.425-.56 1.953-1.152-1.728-1.45-5.93-5.017-6.374-5.09-.226-.036-1.089.6-1.1.056-.007-.262.851-1.014 1.013-1.21.744-.884 1.486-1.77 2.23-2.653.62.282-.11.732.205 1.243.231.374 4.901 4.267 6.042 5.242m-5.273 6.98c.443.095.624-.434.958.056-.815.973-1.633 1.945-2.448 2.917-.371.442-.841.916-.706-.018.089-.63-6.114-5.664-6.493-5.82-.48-.197-.758.417-1.11-.097.732-.87 1.46-1.74 2.194-2.608.246-.292.476-.612.747-.882.338-.34.208.672.223.585-.091.513.528.948.856 1.228 1.545 1.36 5.397 4.588 5.779 4.639m-8.771.917c-1.768-.523-3.65.164-4.207 2.042-.543 1.835.614 3.757 2.071 4.8 1.44 1.033 3.59.97 4.373-.837.346-.8.158-1.706-.094-2.502-.16-.506-.597-1 .056-1.29.86 1.097 1.721 2.19 2.581 3.287-1.055.633-1.518 1.683-2.3 2.595-.882 1.07-2.064 2.079-3.482 2.284-2.87.406-5.574-2.556-5.795-5.245-.137-1.457.374-2.848 1.246-4.001.75-.994 1.867-1.623 2.435-2.754.262-.095 2.705 1.033 3.286 1.255-.052.11-.089.275-.17.366-.76-.226 0 0 0 0m39.3-36.409c-1.15.768-4.025 4.689-4.573 5.341-.108.13-.219.261-.329.391-.01.015-.284-.224-.246-.19-.173-.146.134-.573-.052-.864-.793-1.24-5.758-4.983-6.016-5.163-.555-.384-1.164.159-1.489-.316.72-.854 2.78-3.543 3.02-3.582.478-.078.147.815.21 1 .123.369 2.633 2.445 3.55 3.211.335.281.687-.426.887-.723.327-.484.475-1 .298-1.568-.116-.37-.717-.92-.25-1.174l2.613 3.049c.252.293-.566.037-.469.087-.37-.19-.718-.235-1.063.028-.096.071-1.089 1.082-.99 1.166.431.361.96.963 1.517 1.1.862.213 1.582-1.516 1.71-2.129a3.451 3.451 0 0 0-.077-1.75c-.124-.387-.487-.696.018-.93.712.974 1.422 1.946 2.131 2.92a.7.7 0 0 0-.4.096c-.127.085.14-.07 0 0M37.847 32.09c-.647-1.51-2.201-3.062-3.732-3.666-1.82-.715-3.1.827-2.361 2.553.65 1.515 2.203 3.056 3.738 3.666 1.85.735 3.066-.846 2.355-2.552-.382-.89.07.169 0 0m.465-4.753c2.205 1.856 2.48 5.053.768 7.339-1.867 2.489-5.371 3.096-7.803 1.052-2.204-1.854-2.49-5.047-.758-7.325 1.99-2.621 5.198-2.917 7.793-1.066 1.155.975-.1-.07 0 0m-6.445 14.609c.475-.06.926-.55 1.27-.042l-2.229 2.637c-.595-.27.047-.55-.194-.971-.244-.427-2.56-.781-3.176-.89.224.644.895 2.615 1.157 2.835.544.445.883-.432 1.283.14l-2.743 3.254c-.31.366-.559 1.028-.98.68.038.03.006-1.472-.089-1.733-.086-.236-.936-3.638-1.926-4.47-.493-.414-2.237-1.934-2.702-2.097-.54-.19-.825.598-1.22.038l2.491-2.957c.125-.148.602-.863.767-.893.521-.094.06.893.113 1.086.151.43 2.5 2.719 3.497 2.859 1.461.205 3.2.702 4.681.524.34-.042-.352.043 0 0" fill="#fff"/><path d="M25.607 61.11c-4.043.167-2.352 3.954.395 4.808 2.611.813 8.088-1.717 9.842-3.398-2.782-.855-6.385-.732-9.446-.874-.227 3.12-.958 2.032-.79-.536m1.014-4.85c-2.04 1.579-1.396 5.266 1.763 4.146 4.006-2.084-.856-3.24-1.763-4.146 0 0 .042.042 0 0m8.488-7.699c-8.62.071-2.792 13.322.141 12.521 3.373-1.073 2.995-12.622-.14-12.521m6.105 4.329c-.84-2.5-2.36-2.968-2.191.07.193 3.503 2.478 2.662 4.929 4.004 2.04 1.12 3.139 5.214 6.64 2.765 1.563-1.093 3.353-.179 3.852-1.833-.025.084-4.544-10.308-2.031-10.308-4.961 0-2.772 5.922-.874 9.9-1.846-.886-4.842-6.689-2.382-7.644-1.281-1.686-5.194-3.945-7.234-2.298-1.552 1.25-.691 3.325-.71 5.344m4.105-9.603c-3.489-1.046-8.122 1.207-2.51 2.34 3.483.704 7.187-.778 2.51-2.34.141.042-.128-.043 0 0m4.37.141c-.736 1.658.562 3.635 2.68 2.199 1.846-1.252-.85-3.106-2.68-2.2m-2.946-4.667c-2.41.747-10.537.56-5.218 2.764 1.64.679 10.155-.098 5.218-2.764m3.215.353c-.007.96-.512 2.679 1.354 1.946 2.235-.88-1.354-2.651-1.354-1.946 0 0 0 .169 0 0m7.219-3.667c-1.437 1.227-2.891 1.295-4.23 0-1.793 3.293-8.317 2.19-11.365 2.65 1.639-4.027 14.865-4.78 15.595-2.65m-1.903-2.424c-3.15.146-6.67.563-9.646-.084 1.86-.467 6.396-1.796 2.171-2.919 1.516-2.167 3.974-2.028 5.584-.126-.654.322-1.009.719-1.55 1.057 1.67.303 3.233 1.267 3.441 2.072m3.596 3.877c-5.288 3.112-3.95 5.427.354 7.586 2.254 1.13 7.324 5.208 9.447 3.85-3.268-3.812-6.535-7.624-9.8-11.436" fill="#dc6243"/><path d="M55.106 44.175c-4.479 4.6 6.688 4.178 8.486 5.796 1.312-.437 10.77 8.283 13.072 7.74-1.656-1.94-5.22-8.135-7.775-8.135-1.965 0-3.95.292-5.472-1.107-2.224-2.048-5.909-3.09-8.31-4.294" fill="#f49774"/><path d="M56.573 49.8c-2.453-1.318-4.772 3.908-.537 3.399 2.813-.338 5.662.237 8.348-.226-1.927-2.291-4.707-3.553-7.81-3.172" fill="#f4b1a4"/><path d="M69.205 31.518c.191-.648.3-1.332.215-2.01-.107-.872-.979-2.924-2.173-2.34-1.169.575-2.194 1.729-3.188 2.553.802.936 1.507 1.749 2.854 1.295.37-.123.688.036.3.262-.405.234-3.114 1.965-3.262 1.799-.27-.311.528-.868.221-1.473-.229-.447-.61-.834-.932-1.22-.72.609-1.923 1.254-1.056 2.257.542.66 1.25 1.172 2.097 1.342.566.114 1.841-.39 2.006.224l-3.258 1.565c.177-.8-3.348-4.525-4.13-5.463-.114-.138-.659-.61-.665-.798-.008-.43.622-.097.658-.084.485.18 6.815-5.108 6.972-5.471.1-.281-.22-.574-.029-.731-.01.01.228-.217.253-.185.391.468 4.522 5.976 5.374 6.217a420.683 420.683 0 0 0-2.368 3.652c-.59-.258-.019-.95.111-1.391m-6.161-6.704c-2.077 1.34-5.596-1.279-6.125-1.53-1.04-.491-1.79.543-1.251 1.502.469.83 1.394 1.233 2.31 1.288.277.017 1.35-.197 1.46-.026.129.204.227.222.042.347l-2.568 1.733c-.176-1.055-1.385-1.727-2.076-2.44-.822-.854-1.52-1.931-1.52-3.156 0-1.135.679-2.143 1.677-2.66 1.136-.592 2.318-.117 3.324.51.627.392 1.254.857 1.924 1.17.996.468 2.304.064 1.953-1.268-.282-1.073-1.351-2.062-2.405-2.34-.616-.164-1.27-.11-1.872.09-.432.14-.993.734-1.23.11l3.482-2.536c.104.76.522 1.09 1.086 1.563.735.646 1.438 1.32 1.994 2.13 1.159 1.694 1.538 4.063-.205 5.514m0-.001c.925-.598-.591.494 0 0m29.233 37.315c-.007-.004-.007-.004 0 0" fill="#fff"/><path d="M92.361 62.183c.077.05.153.098 0 0a2.533 2.533 0 0 1-.084-.054l.082.052a5.722 5.722 0 0 1-.958-.76c-.52.896-1.044 1.794-1.564 2.692a743.99 743.99 0 0 0 3.524-1.48 3.735 3.735 0 0 1-1-.45m7.374 2.156c-.729-.729-8.42 2.341-8.982 2.764-.29.116-.3 1.321-.705.833-.404-.488-.81-.976-1.216-1.463l-1.256-1.513c-.26-.314-.537-.458-.038-.72.837.42 5.417-7.346 5.008-8.46-.725-.377-6.915 5.056-7.08 5.414-.053.146.272 1.021-.212.945-.229-.036-.744-.896-.889-1.072l-.889-1.072c.332-.485.517.021.96-.042.382-.077 1.843-1.33 2.24-1.664-.725-.027-2.685-.13-2.934-.113-.903-.112-.422.663-1.015.931-.76-.922-1.52-1.843-2.277-2.764l-1.326-1.607c-.054-.065-.047-.032.05-.112.33-.273.104-.168.568-.006.506.177 6.558-4.93 6.776-5.19.377-.45-.154-.975.411-1.22l1.798 2.183c.091.11.141.1.021.198-.427.353-.476-.212-1.002-.154-.533.09-4.395 3.37-5.895 4.61l8.198.304c.301.011 1.14-.896 1.07-1.216-.082-.378-.464-.558.053-.794.48.575.985 1.15 1.456 1.734l.227.282a.74.74 0 0 1 .21.265l.168.211c.425.485 1.8 2.006 1.635 2.15-.46.4-.685-.466-1.298.054-.348.25-1.223 1.788-1.443 2.162-.264.45.608.897.963 1.12.777.481 3.248 1.182 3.483-.349.04-.258-.272-.55-.084-.704.044-.037.204-.242.27-.163.163.197 2.361 2.843 3.3 3.97-.098.081-.207.223-.324.268m-17.4-19.981l-.025-.027c-1.233-1.292-3.359-.096-4.506.73-1.146.83-3.111 2.57-1.856 4.105 1.056 1.287 3.124.23 4.192-.482 1.199-.803 3.411-2.596 2.275-4.216.074.09.126.148-.08-.11m.281 6.614c-2.375 1.979-5.63 1.404-7.586-.832-1.903-2.312-1.712-5.663.605-7.615 2.34-1.926 5.671-1.438 7.572.846 1.899 2.303 1.769 5.668-.591 7.6m0 .001c1.171-.96-.253.21 0 0" fill="#fff"/><path d="M82.308 44.331l.025.027c.03.037.057.073.08.11-.048-.06-.11-.137-.105-.137m-7.602-9.237c-.24-.296-.044-.054-.665-.65-.306-.293-6.438 4.675-6.19 4.944.834.918 2.565 1.556 3.575 1.297 2.19-.56 5.214-3.26 3.28-5.591m1.318 6.754c.112-.094.273-.224-.063.057-2.835 2.127-6.193 1.504-8.4-1.157a1801.7 1801.7 0 0 1-2.962-3.567c.35-.512.762.118 1.272-.176.437-.25 6.244-5.1 6.34-5.366.163-.458-.256-.548.143-.875.172-.143 4.537 5.245 4.935 6.19.69 1.756.14 3.679-1.265 4.894" fill="#fff"/></g></svg>