<svg xmlns="http://www.w3.org/2000/svg" viewBox="0 0 613.00531 106.40627" height="106.406" width="613.005"><defs><clipPath id="a"><path d="M0 79.805h459.754V0H0z"/></clipPath></defs><g clip-path="url(#a)" transform="matrix(1.33333 0 0 -1.33333 0 106.406)"><path d="M44.466 58.067c-3.572 2.979-8.14 4.963-12.902 4.963-3.572 0-8.338-2.084-8.338-6.253 0-4.368 5.26-6.055 8.636-7.146l4.964-1.49c10.422-3.076 18.46-8.336 18.46-20.447 0-7.445-1.786-15.087-7.741-20.15C41.69 2.582 33.848.498 26.305.498 16.875.497 7.644 3.674 0 9.034l8.338 15.683c4.865-4.27 10.62-7.742 17.27-7.742 4.567 0 9.43 2.283 9.43 7.545 0 5.459-7.642 7.344-11.811 8.535-12.208 3.475-20.25 6.649-20.25 21.143 0 15.188 10.819 25.112 25.808 25.112 7.543 0 16.775-2.382 23.426-6.154zm47.365 2.779V48.34h21.937V31.86H91.831v-12.9h23.127V2.483H72.376v74.84h42.582V60.845H91.831zm57.041-41.887h4.367c11.612 0 21.54 6.352 21.54 20.942 0 13.401-8.835 20.944-21.342 20.944h-4.565zm-19.455 58.364h27.594c20.844 0 38.016-16.377 38.016-37.42 0-21.041-17.27-37.42-38.016-37.42h-27.594zm94.922-36.13c0-12.905 9.529-22.333 21.14-22.333 11.614 0 21.144 9.43 21.144 22.333 0 10.323-9.526 19.752-21.143 19.752-11.613 0-21.141-9.43-21.141-19.752m62.534.099C286.873 17.072 269.502 0 245.48 0c-24.02 0-41.391 17.07-41.391 41.292 0 22.632 19.852 38.513 41.39 38.513 21.54 0 41.394-15.881 41.394-38.513m10.365 36.031h19.454l35.636-45.757h.196v45.757h19.453V2.483h-19.453L316.89 48.34h-.197V2.484h-19.454zm123.707-23.127h-.199l-8.039-23.824h16.177zm-13.6-38.71l-5.16-13.002h-20.646l28.785 74.839h21.242l28.188-74.84h-20.746l-4.862 13.003z" fill="#fff"/></g></svg>