<svg xmlns="http://www.w3.org/2000/svg" viewBox="0 0 30.731733 21.664" height="21.664" width="30.732"><defs><clipPath id="a"><path d="M0 16.248h23.049V0H0z"/></clipPath></defs><g clip-path="url(#a)" transform="matrix(1.33333 0 0 -1.33333 0 21.664)"><path d="M22.8 14.949l-1.05 1.05a.853.853 0 0 1-1.203 0L8.694 4.147l-6.192 6.19a.853.853 0 0 1-1.203 0L.248 9.287a.852.852 0 0 1 0-1.202L8.085.247A.847.847 0 0 1 8.694 0c.22-.002.44.08.607.247l13.5 13.5a.852.852 0 0 1 0 1.202" fill="#231f20"/></g></svg>